<svg id="my-svg" width="100%" xmlns="http://www.w3.org/2000/svg" xmlns:xlink="http://www.w3.org/1999/xlink" style="max-width: 3020px; background-color: white;" viewBox="-50 -10 3020 2774" role="graphics-document document" aria-roledescription="sequence"><rect x="444" y="2105" fill="rgb(255,250,240)" width="2412" height="465" class="rect"/><rect x="240" y="75" fill="rgb(245,245,245)" width="2256" height="2020" class="rect"/><rect x="847.5" y="2011" fill="rgb(255,230,230)" width="805" height="64" class="rect"/><rect x="448" y="847" fill="rgb(220,255,220)" width="2028" height="1109" class="rect"/><rect x="468" y="1578" fill="rgb(220,255,220)" width="1988" height="358" class="rect"/><rect x="847.5" y="1459" fill="rgb(255,230,230)" width="1208.5" height="64" class="rect"/><rect x="847.5" y="1286" fill="rgb(255,230,230)" width="1008.5" height="64" class="rect"/><rect x="847.5" y="1167" fill="rgb(220,255,220)" width="1008.5" height="64" class="rect"/><g><rect x="2770" y="2688" fill="#eaeaea" stroke="#666" width="150" height="65" name="Response" rx="3" ry="3" class="actor actor-bottom"/><text x="2845" y="2720.5" dominant-baseline="central" alignment-baseline="central" class="actor actor-box" style="text-anchor: middle; font-size: 16px; font-weight: 400;"><tspan x="2845" dy="0">ResponsePlugins</tspan></text></g><g><rect x="2570" y="2688" fill="#eaeaea" stroke="#666" width="150" height="65" name="Model" rx="3" ry="3" class="actor actor-bottom"/><text x="2645" y="2720.5" dominant-baseline="central" alignment-baseline="central" class="actor actor-box" style="text-anchor: middle; font-size: 16px; font-weight: 400;"><tspan x="2645" dy="0">ModelServer</tspan></text></g><g><rect x="2370" y="2688" fill="#eaeaea" stroke="#666" width="150" height="65" name="PreReq" rx="3" ry="3" class="actor actor-bottom"/><text x="2445" y="2720.5" dominant-baseline="central" alignment-baseline="central" class="actor actor-box" style="text-anchor: middle; font-size: 16px; font-weight: 400;"><tspan x="2445" dy="0">PreRequestPlugins</tspan></text></g><g><rect x="2170" y="2688" fill="#eaeaea" stroke="#666" width="150" height="65" name="Scheduler" rx="3" ry="3" class="actor actor-bottom"/><text x="2245" y="2720.5" dominant-baseline="central" alignment-baseline="central" class="actor actor-box" style="text-anchor: middle; font-size: 16px; font-weight: 400;"><tspan x="2245" dy="0">Scheduler</tspan></text></g><g><rect x="1970" y="2688" fill="#eaeaea" stroke="#666" width="150" height="65" name="Admission" rx="3" ry="3" class="actor actor-bottom"/><text x="2045" y="2720.5" dominant-baseline="central" alignment-baseline="central" class="actor actor-box" style="text-anchor: middle; font-size: 16px; font-weight: 400;"><tspan x="2045" dy="0">AdmissionPlugins</tspan></text></g><g><rect x="1770" y="2688" fill="#eaeaea" stroke="#666" width="150" height="65" name="Prepare" rx="3" ry="3" class="actor actor-bottom"/><text x="1845" y="2720.5" dominant-baseline="central" alignment-baseline="central" class="actor actor-box" style="text-anchor: middle; font-size: 16px; font-weight: 400;"><tspan x="1845" dy="0">PrepareDataPlugins</tspan></text></g><g><rect x="1563" y="2688" fill="#eaeaea" stroke="#666" width="157" height="65" name="AdmissionCtrl" rx="3" ry="3" class="actor actor-bottom"/><text x="1641.5" y="2720.5" dominant-baseline="central" alignment-baseline="central" class="actor actor-box" style="text-anchor: middle; font-size: 16px; font-weight: 400;"><tspan x="1641.5" dy="0">AdmissionController</tspan></text></g><g><rect x="1363" y="2688" fill="#eaeaea" stroke="#666" width="150" height="65" name="PodLocator" rx="3" ry="3" class="actor actor-bottom"/><text x="1438" y="2720.5" dominant-baseline="central" alignment-baseline="central" class="actor actor-box" style="text-anchor: middle; font-size: 16px; font-weight: 400;"><tspan x="1438" dy="0">PodLocator</tspan></text></g><g><rect x="1163" y="2688" fill="#eaeaea" stroke="#666" width="150" height="65" name="Datastore" rx="3" ry="3" class="actor actor-bottom"/><text x="1238" y="2720.5" dominant-baseline="central" alignment-baseline="central" class="actor actor-box" style="text-anchor: middle; font-size: 16px; font-weight: 400;"><tspan x="1238" dy="0">Datastore</tspan></text></g><g><rect x="783.5" y="2688" fill="#eaeaea" stroke="#666" width="150" height="65" name="Director" rx="3" ry="3" class="actor actor-bottom"/><text x="858.5" y="2720.5" dominant-baseline="central" alignment-baseline="central" class="actor actor-box" style="text-anchor: middle; font-size: 16px; font-weight: 400;"><tspan x="858.5" dy="0">Director</tspan></text></g><g><rect x="404" y="2688" fill="#eaeaea" stroke="#666" width="150" height="65" name="Handler" rx="3" ry="3" class="actor actor-bottom"/><text x="479" y="2720.5" dominant-baseline="central" alignment-baseline="central" class="actor actor-box" style="text-anchor: middle; font-size: 16px; font-weight: 400;"><tspan x="479" dy="0">Handler</tspan></text></g><g><rect x="200" y="2688" fill="#eaeaea" stroke="#666" width="150" height="65" name="Envoy" rx="3" ry="3" class="actor actor-bottom"/><text x="275" y="2720.5" dominant-baseline="central" alignment-baseline="central" class="actor actor-box" style="text-anchor: middle; font-size: 16px; font-weight: 400;"><tspan x="275" dy="0">Envoy/Client</tspan></text></g><g><rect x="0" y="2688" fill="#eaeaea" stroke="#666" width="150" height="65" name="Operator" rx="3" ry="3" class="actor actor-bottom"/><text x="75" y="2720.5" dominant-baseline="central" alignment-baseline="central" class="actor actor-box" style="text-anchor: middle; font-size: 16px; font-weight: 400;"><tspan x="75" dy="0">Operator</tspan></text></g><g><line id="actor12" x1="2845" y1="65" x2="2845" y2="2688" class="actor-line 200" stroke-width="0.5px" stroke="#999" name="Response"/><g id="root-12"><rect x="2770" y="0" fill="#eaeaea" stroke="#666" width="150" height="65" name="Response" rx="3" ry="3" class="actor actor-top"/><text x="2845" y="32.5" dominant-baseline="central" alignment-baseline="central" class="actor actor-box" style="text-anchor: middle; font-size: 16px; font-weight: 400;"><tspan x="2845" dy="0">ResponsePlugins</tspan></text></g></g><g><line id="actor11" x1="2645" y1="65" x2="2645" y2="2688" class="actor-line 200" stroke-width="0.5px" stroke="#999" name="Model"/><g id="root-11"><rect x="2570" y="0" fill="#eaeaea" stroke="#666" width="150" height="65" name="Model" rx="3" ry="3" class="actor actor-top"/><text x="2645" y="32.5" dominant-baseline="central" alignment-baseline="central" class="actor actor-box" style="text-anchor: middle; font-size: 16px; font-weight: 400;"><tspan x="2645" dy="0">ModelServer</tspan></text></g></g><g><line id="actor10" x1="2445" y1="65" x2="2445" y2="2688" class="actor-line 200" stroke-width="0.5px" stroke="#999" name="PreReq"/><g id="root-10"><rect x="2370" y="0" fill="#eaeaea" stroke="#666" width="150" height="65" name="PreReq" rx="3" ry="3" class="actor actor-top"/><text x="2445" y="32.5" dominant-baseline="central" alignment-baseline="central" class="actor actor-box" style="text-anchor: middle; font-size: 16px; font-weight: 400;"><tspan x="2445" dy="0">PreRequestPlugins</tspan></text></g></g><g><line id="actor9" x1="2245" y1="65" x2="2245" y2="2688" class="actor-line 200" stroke-width="0.5px" stroke="#999" name="Scheduler"/><g id="root-9"><rect x="2170" y="0" fill="#eaeaea" stroke="#666" width="150" height="65" name="Scheduler" rx="3" ry="3" class="actor actor-top"/><text x="2245" y="32.5" dominant-baseline="central" alignment-baseline="central" class="actor actor-box" style="text-anchor: middle; font-size: 16px; font-weight: 400;"><tspan x="2245" dy="0">Scheduler</tspan></text></g></g><g><line id="actor8" x1="2045" y1="65" x2="2045" y2="2688" class="actor-line 200" stroke-width="0.5px" stroke="#999" name="Admission"/><g id="root-8"><rect x="1970" y="0" fill="#eaeaea" stroke="#666" width="150" height="65" name="Admission" rx="3" ry="3" class="actor actor-top"/><text x="2045" y="32.5" dominant-baseline="central" alignment-baseline="central" class="actor actor-box" style="text-anchor: middle; font-size: 16px; font-weight: 400;"><tspan x="2045" dy="0">AdmissionPlugins</tspan></text></g></g><g><line id="actor7" x1="1845" y1="65" x2="1845" y2="2688" class="actor-line 200" stroke-width="0.5px" stroke="#999" name="Prepare"/><g id="root-7"><rect x="1770" y="0" fill="#eaeaea" stroke="#666" width="150" height="65" name="Prepare" rx="3" ry="3" class="actor actor-top"/><text x="1845" y="32.5" dominant-baseline="central" alignment-baseline="central" class="actor actor-box" style="text-anchor: middle; font-size: 16px; font-weight: 400;"><tspan x="1845" dy="0">PrepareDataPlugins</tspan></text></g></g><g><line id="actor6" x1="1641.5" y1="65" x2="1641.5" y2="2688" class="actor-line 200" stroke-width="0.5px" stroke="#999" name="AdmissionCtrl"/><g id="root-6"><rect x="1563" y="0" fill="#eaeaea" stroke="#666" width="157" height="65" name="AdmissionCtrl" rx="3" ry="3" class="actor actor-top"/><text x="1641.5" y="32.5" dominant-baseline="central" alignment-baseline="central" class="actor actor-box" style="text-anchor: middle; font-size: 16px; font-weight: 400;"><tspan x="1641.5" dy="0">AdmissionController</tspan></text></g></g><g><line id="actor5" x1="1438" y1="65" x2="1438" y2="2688" class="actor-line 200" stroke-width="0.5px" stroke="#999" name="PodLocator"/><g id="root-5"><rect x="1363" y="0" fill="#eaeaea" stroke="#666" width="150" height="65" name="PodLocator" rx="3" ry="3" class="actor actor-top"/><text x="1438" y="32.5" dominant-baseline="central" alignment-baseline="central" class="actor actor-box" style="text-anchor: middle; font-size: 16px; font-weight: 400;"><tspan x="1438" dy="0">PodLocator</tspan></text></g></g><g><line id="actor4" x1="1238" y1="65" x2="1238" y2="2688" class="actor-line 200" stroke-width="0.5px" stroke="#999" name="Datastore"/><g id="root-4"><rect x="1163" y="0" fill="#eaeaea" stroke="#666" width="150" height="65" name="Datastore" rx="3" ry="3" class="actor actor-top"/><text x="1238" y="32.5" dominant-baseline="central" alignment-baseline="central" class="actor actor-box" style="text-anchor: middle; font-size: 16px; font-weight: 400;"><tspan x="1238" dy="0">Datastore</tspan></text></g></g><g><line id="actor3" x1="858.5" y1="65" x2="858.5" y2="2688" class="actor-line 200" stroke-width="0.5px" stroke="#999" name="Director"/><g id="root-3"><rect x="783.5" y="0" fill="#eaeaea" stroke="#666" width="150" height="65" name="Director" rx="3" ry="3" class="actor actor-top"/><text x="858.5" y="32.5" dominant-baseline="central" alignment-baseline="central" class="actor actor-box" style="text-anchor: middle; font-size: 16px; font-weight: 400;"><tspan x="858.5" dy="0">Director</tspan></text></g></g><g><line id="actor2" x1="479" y1="65" x2="479" y2="2688" class="actor-line 200" stroke-width="0.5px" stroke="#999" name="Handler"/><g id="root-2"><rect x="404" y="0" fill="#eaeaea" stroke="#666" width="150" height="65" name="Handler" rx="3" ry="3" class="actor actor-top"/><text x="479" y="32.5" dominant-baseline="central" alignment-baseline="central" class="actor actor-box" style="text-anchor: middle; font-size: 16px; font-weight: 400;"><tspan x="479" dy="0">Handler</tspan></text></g></g><g><line id="actor1" x1="275" y1="65" x2="275" y2="2688" class="actor-line 200" stroke-width="0.5px" stroke="#999" name="Envoy"/><g id="root-1"><rect x="200" y="0" fill="#eaeaea" stroke="#666" width="150" height="65" name="Envoy" rx="3" ry="3" class="actor actor-top"/><text x="275" y="32.5" dominant-baseline="central" alignment-baseline="central" class="actor actor-box" style="text-anchor: middle; font-size: 16px; font-weight: 400;"><tspan x="275" dy="0">Envoy/Client</tspan></text></g></g><g><line id="actor0" x1="75" y1="65" x2="75" y2="2688" class="actor-line 200" stroke-width="0.5px" stroke="#999" name="Operator"/><g id="root-0"><rect x="0" y="0" fill="#eaeaea" stroke="#666" width="150" height="65" name="Operator" rx="3" ry="3" class="actor actor-top"/><text x="75" y="32.5" dominant-baseline="central" alignment-baseline="central" class="actor actor-box" style="text-anchor: middle; font-size: 16px; font-weight: 400;"><tspan x="75" dy="0">Operator</tspan></text></g></g><style>#my-svg{font-family:"trebuchet ms",verdana,arial,sans-serif;font-size:16px;fill:#333;}@keyframes edge-animation-frame{from{stroke-dashoffset:0;}}@keyframes dash{to{stroke-dashoffset:0;}}#my-svg .edge-animation-slow{stroke-dasharray:9,5!important;stroke-dashoffset:900;animation:dash 50s linear infinite;stroke-linecap:round;}#my-svg .edge-animation-fast{stroke-dasharray:9,5!important;stroke-dashoffset:900;animation:dash 20s linear infinite;stroke-linecap:round;}#my-svg .error-icon{fill:#552222;}#my-svg .error-text{fill:#552222;stroke:#552222;}#my-svg .edge-thickness-normal{stroke-width:1px;}#my-svg .edge-thickness-thick{stroke-width:3.5px;}#my-svg .edge-pattern-solid{stroke-dasharray:0;}#my-svg .edge-thickness-invisible{stroke-width:0;fill:none;}#my-svg .edge-pattern-dashed{stroke-dasharray:3;}#my-svg .edge-pattern-dotted{stroke-dasharray:2;}#my-svg .marker{fill:#333333;stroke:#333333;}#my-svg .marker.cross{stroke:#333333;}#my-svg svg{font-family:"trebuchet ms",verdana,arial,sans-serif;font-size:16px;}#my-svg p{margin:0;}#my-svg .actor{stroke:hsl(259.6261682243, 59.7765363128%, 87.9019607843%);fill:#ECECFF;}#my-svg text.actor&gt;tspan{fill:black;stroke:none;}#my-svg .actor-line{stroke:hsl(259.6261682243, 59.7765363128%, 87.9019607843%);}#my-svg .innerArc{stroke-width:1.5;stroke-dasharray:none;}#my-svg .messageLine0{stroke-width:1.5;stroke-dasharray:none;stroke:#333;}#my-svg .messageLine1{stroke-width:1.5;stroke-dasharray:2,2;stroke:#333;}#my-svg #arrowhead path{fill:#333;stroke:#333;}#my-svg .sequenceNumber{fill:white;}#my-svg #sequencenumber{fill:#333;}#my-svg #crosshead path{fill:#333;stroke:#333;}#my-svg .messageText{fill:#333;stroke:none;}#my-svg .labelBox{stroke:hsl(259.6261682243, 59.7765363128%, 87.9019607843%);fill:#ECECFF;}#my-svg .labelText,#my-svg .labelText&gt;tspan{fill:black;stroke:none;}#my-svg .loopText,#my-svg .loopText&gt;tspan{fill:black;stroke:none;}#my-svg .loopLine{stroke-width:2px;stroke-dasharray:2,2;stroke:hsl(259.6261682243, 59.7765363128%, 87.9019607843%);fill:hsl(259.6261682243, 59.7765363128%, 87.9019607843%);}#my-svg .note{stroke:#aaaa33;fill:#fff5ad;}#my-svg .noteText,#my-svg .noteText&gt;tspan{fill:black;stroke:none;}#my-svg .activation0{fill:#f4f4f4;stroke:#666;}#my-svg .activation1{fill:#f4f4f4;stroke:#666;}#my-svg .activation2{fill:#f4f4f4;stroke:#666;}#my-svg .actorPopupMenu{position:absolute;}#my-svg .actorPopupMenuPanel{position:absolute;fill:#ECECFF;box-shadow:0px 8px 16px 0px rgba(0,0,0,0.2);filter:drop-shadow(3px 5px 2px rgb(0 0 0 / 0.4));}#my-svg .actor-man line{stroke:hsl(259.6261682243, 59.7765363128%, 87.9019607843%);fill:#ECECFF;}#my-svg .actor-man circle,#my-svg line{stroke:hsl(259.6261682243, 59.7765363128%, 87.9019607843%);fill:#ECECFF;stroke-width:2px;}#my-svg :root{--mermaid-font-family:"trebuchet ms",verdana,arial,sans-serif;}</style><g/><defs><symbol id="computer" width="24" height="24"><path transform="scale(.5)" d="M2 2v13h20v-13h-20zm18 11h-16v-9h16v9zm-10.228 6l.466-1h3.524l.467 1h-4.457zm14.228 3h-24l2-6h2.104l-1.33 4h18.45l-1.297-4h2.073l2 6zm-5-10h-14v-7h14v7z"/></symbol></defs><defs><symbol id="database" fill-rule="evenodd" clip-rule="evenodd"><path transform="scale(.5)" d="M12.258.001l.256.004.255.005.253.008.251.01.249.012.247.015.246.016.242.019.241.02.239.023.236.024.233.027.231.028.229.031.225.032.223.034.22.036.217.038.214.04.211.041.208.043.205.045.201.046.198.048.194.05.191.051.187.053.183.054.18.056.175.057.172.059.168.06.163.061.16.063.155.064.15.066.074.033.073.033.071.034.07.034.069.035.068.035.067.035.066.035.064.036.064.036.062.036.06.036.06.037.058.037.058.037.055.038.055.038.053.038.052.038.051.039.05.039.048.039.047.039.045.04.044.04.043.04.041.04.04.041.039.041.037.041.036.041.034.041.033.042.032.042.03.042.029.042.027.042.026.043.024.043.023.043.021.043.02.043.018.044.017.043.015.044.013.044.012.044.011.045.009.044.007.045.006.045.004.045.002.045.001.045v17l-.001.045-.002.045-.004.045-.006.045-.007.045-.009.044-.011.045-.012.044-.013.044-.015.044-.017.043-.018.044-.02.043-.021.043-.023.043-.024.043-.026.043-.027.042-.029.042-.03.042-.032.042-.033.042-.034.041-.036.041-.037.041-.039.041-.04.041-.041.04-.043.04-.044.04-.045.04-.047.039-.048.039-.05.039-.051.039-.052.038-.053.038-.055.038-.055.038-.058.037-.058.037-.06.037-.06.036-.062.036-.064.036-.064.036-.066.035-.067.035-.068.035-.069.035-.07.034-.071.034-.073.033-.074.033-.15.066-.155.064-.16.063-.163.061-.168.06-.172.059-.175.057-.18.056-.183.054-.187.053-.191.051-.194.05-.198.048-.201.046-.205.045-.208.043-.211.041-.214.04-.217.038-.22.036-.223.034-.225.032-.229.031-.231.028-.233.027-.236.024-.239.023-.241.02-.242.019-.246.016-.247.015-.249.012-.251.01-.253.008-.255.005-.256.004-.258.001-.258-.001-.256-.004-.255-.005-.253-.008-.251-.01-.249-.012-.247-.015-.245-.016-.243-.019-.241-.02-.238-.023-.236-.024-.234-.027-.231-.028-.228-.031-.226-.032-.223-.034-.22-.036-.217-.038-.214-.04-.211-.041-.208-.043-.204-.045-.201-.046-.198-.048-.195-.05-.19-.051-.187-.053-.184-.054-.179-.056-.176-.057-.172-.059-.167-.06-.164-.061-.159-.063-.155-.064-.151-.066-.074-.033-.072-.033-.072-.034-.07-.034-.069-.035-.068-.035-.067-.035-.066-.035-.064-.036-.063-.036-.062-.036-.061-.036-.06-.037-.058-.037-.057-.037-.056-.038-.055-.038-.053-.038-.052-.038-.051-.039-.049-.039-.049-.039-.046-.039-.046-.04-.044-.04-.043-.04-.041-.04-.04-.041-.039-.041-.037-.041-.036-.041-.034-.041-.033-.042-.032-.042-.03-.042-.029-.042-.027-.042-.026-.043-.024-.043-.023-.043-.021-.043-.02-.043-.018-.044-.017-.043-.015-.044-.013-.044-.012-.044-.011-.045-.009-.044-.007-.045-.006-.045-.004-.045-.002-.045-.001-.045v-17l.001-.045.002-.045.004-.045.006-.045.007-.045.009-.044.011-.045.012-.044.013-.044.015-.044.017-.043.018-.044.02-.043.021-.043.023-.043.024-.043.026-.043.027-.042.029-.042.03-.042.032-.042.033-.042.034-.041.036-.041.037-.041.039-.041.04-.041.041-.04.043-.04.044-.04.046-.04.046-.039.049-.039.049-.039.051-.039.052-.038.053-.038.055-.038.056-.038.057-.037.058-.037.06-.037.061-.036.062-.036.063-.036.064-.036.066-.035.067-.035.068-.035.069-.035.07-.034.072-.034.072-.033.074-.033.151-.066.155-.064.159-.063.164-.061.167-.06.172-.059.176-.057.179-.056.184-.054.187-.053.19-.051.195-.05.198-.048.201-.046.204-.045.208-.043.211-.041.214-.04.217-.038.22-.036.223-.034.226-.032.228-.031.231-.028.234-.027.236-.024.238-.023.241-.02.243-.019.245-.016.247-.015.249-.012.251-.01.253-.008.255-.005.256-.004.258-.001.258.001zm-9.258 20.499v.01l.001.021.003.021.004.022.005.021.006.022.007.022.009.023.01.022.011.023.012.023.013.023.015.023.016.024.017.023.018.024.019.024.021.024.022.025.023.024.024.025.052.049.056.05.061.051.066.051.07.051.075.051.079.052.084.052.088.052.092.052.097.052.102.051.105.052.11.052.114.051.119.051.123.051.127.05.131.05.135.05.139.048.144.049.147.047.152.047.155.047.16.045.163.045.167.043.171.043.176.041.178.041.183.039.187.039.19.037.194.035.197.035.202.033.204.031.209.03.212.029.216.027.219.025.222.024.226.021.23.02.233.018.236.016.24.015.243.012.246.01.249.008.253.005.256.004.259.001.26-.001.257-.004.254-.005.25-.008.247-.011.244-.012.241-.014.237-.016.233-.018.231-.021.226-.021.224-.024.22-.026.216-.027.212-.028.21-.031.205-.031.202-.034.198-.034.194-.036.191-.037.187-.039.183-.04.179-.04.175-.042.172-.043.168-.044.163-.045.16-.046.155-.046.152-.047.148-.048.143-.049.139-.049.136-.05.131-.05.126-.05.123-.051.118-.052.114-.051.11-.052.106-.052.101-.052.096-.052.092-.052.088-.053.083-.051.079-.052.074-.052.07-.051.065-.051.06-.051.056-.05.051-.05.023-.024.023-.025.021-.024.02-.024.019-.024.018-.024.017-.024.015-.023.014-.024.013-.023.012-.023.01-.023.01-.022.008-.022.006-.022.006-.022.004-.022.004-.021.001-.021.001-.021v-4.127l-.077.055-.08.053-.083.054-.085.053-.087.052-.09.052-.093.051-.095.05-.097.05-.1.049-.102.049-.105.048-.106.047-.109.047-.111.046-.114.045-.115.045-.118.044-.12.043-.122.042-.124.042-.126.041-.128.04-.13.04-.132.038-.134.038-.135.037-.138.037-.139.035-.142.035-.143.034-.144.033-.147.032-.148.031-.15.03-.151.03-.153.029-.154.027-.156.027-.158.026-.159.025-.161.024-.162.023-.163.022-.165.021-.166.02-.167.019-.169.018-.169.017-.171.016-.173.015-.173.014-.175.013-.175.012-.177.011-.178.01-.179.008-.179.008-.181.006-.182.005-.182.004-.184.003-.184.002h-.37l-.184-.002-.184-.003-.182-.004-.182-.005-.181-.006-.179-.008-.179-.008-.178-.01-.176-.011-.176-.012-.175-.013-.173-.014-.172-.015-.171-.016-.17-.017-.169-.018-.167-.019-.166-.02-.165-.021-.163-.022-.162-.023-.161-.024-.159-.025-.157-.026-.156-.027-.155-.027-.153-.029-.151-.03-.15-.03-.148-.031-.146-.032-.145-.033-.143-.034-.141-.035-.14-.035-.137-.037-.136-.037-.134-.038-.132-.038-.13-.04-.128-.04-.126-.041-.124-.042-.122-.042-.12-.044-.117-.043-.116-.045-.113-.045-.112-.046-.109-.047-.106-.047-.105-.048-.102-.049-.1-.049-.097-.05-.095-.05-.093-.052-.09-.051-.087-.052-.085-.053-.083-.054-.08-.054-.077-.054v4.127zm0-5.654v.011l.001.021.003.021.004.021.005.022.006.022.007.022.009.022.01.022.011.023.012.023.013.023.015.024.016.023.017.024.018.024.019.024.021.024.022.024.023.025.024.024.052.05.056.05.061.05.066.051.07.051.075.052.079.051.084.052.088.052.092.052.097.052.102.052.105.052.11.051.114.051.119.052.123.05.127.051.131.05.135.049.139.049.144.048.147.048.152.047.155.046.16.045.163.045.167.044.171.042.176.042.178.04.183.04.187.038.19.037.194.036.197.034.202.033.204.032.209.03.212.028.216.027.219.025.222.024.226.022.23.02.233.018.236.016.24.014.243.012.246.01.249.008.253.006.256.003.259.001.26-.001.257-.003.254-.006.25-.008.247-.01.244-.012.241-.015.237-.016.233-.018.231-.02.226-.022.224-.024.22-.025.216-.027.212-.029.21-.03.205-.032.202-.033.198-.035.194-.036.191-.037.187-.039.183-.039.179-.041.175-.042.172-.043.168-.044.163-.045.16-.045.155-.047.152-.047.148-.048.143-.048.139-.05.136-.049.131-.05.126-.051.123-.051.118-.051.114-.052.11-.052.106-.052.101-.052.096-.052.092-.052.088-.052.083-.052.079-.052.074-.051.07-.052.065-.051.06-.05.056-.051.051-.049.023-.025.023-.024.021-.025.02-.024.019-.024.018-.024.017-.024.015-.023.014-.023.013-.024.012-.022.01-.023.01-.023.008-.022.006-.022.006-.022.004-.021.004-.022.001-.021.001-.021v-4.139l-.077.054-.08.054-.083.054-.085.052-.087.053-.09.051-.093.051-.095.051-.097.05-.1.049-.102.049-.105.048-.106.047-.109.047-.111.046-.114.045-.115.044-.118.044-.12.044-.122.042-.124.042-.126.041-.128.04-.13.039-.132.039-.134.038-.135.037-.138.036-.139.036-.142.035-.143.033-.144.033-.147.033-.148.031-.15.03-.151.03-.153.028-.154.028-.156.027-.158.026-.159.025-.161.024-.162.023-.163.022-.165.021-.166.02-.167.019-.169.018-.169.017-.171.016-.173.015-.173.014-.175.013-.175.012-.177.011-.178.009-.179.009-.179.007-.181.007-.182.005-.182.004-.184.003-.184.002h-.37l-.184-.002-.184-.003-.182-.004-.182-.005-.181-.007-.179-.007-.179-.009-.178-.009-.176-.011-.176-.012-.175-.013-.173-.014-.172-.015-.171-.016-.17-.017-.169-.018-.167-.019-.166-.02-.165-.021-.163-.022-.162-.023-.161-.024-.159-.025-.157-.026-.156-.027-.155-.028-.153-.028-.151-.03-.15-.03-.148-.031-.146-.033-.145-.033-.143-.033-.141-.035-.14-.036-.137-.036-.136-.037-.134-.038-.132-.039-.13-.039-.128-.04-.126-.041-.124-.042-.122-.043-.12-.043-.117-.044-.116-.044-.113-.046-.112-.046-.109-.046-.106-.047-.105-.048-.102-.049-.1-.049-.097-.05-.095-.051-.093-.051-.09-.051-.087-.053-.085-.052-.083-.054-.08-.054-.077-.054v4.139zm0-5.666v.011l.001.02.003.022.004.021.005.022.006.021.007.022.009.023.01.022.011.023.012.023.013.023.015.023.016.024.017.024.018.023.019.024.021.025.022.024.023.024.024.025.052.05.056.05.061.05.066.051.07.051.075.052.079.051.084.052.088.052.092.052.097.052.102.052.105.051.11.052.114.051.119.051.123.051.127.05.131.05.135.05.139.049.144.048.147.048.152.047.155.046.16.045.163.045.167.043.171.043.176.042.178.04.183.04.187.038.19.037.194.036.197.034.202.033.204.032.209.03.212.028.216.027.219.025.222.024.226.021.23.02.233.018.236.017.24.014.243.012.246.01.249.008.253.006.256.003.259.001.26-.001.257-.003.254-.006.25-.008.247-.01.244-.013.241-.014.237-.016.233-.018.231-.02.226-.022.224-.024.22-.025.216-.027.212-.029.21-.03.205-.032.202-.033.198-.035.194-.036.191-.037.187-.039.183-.039.179-.041.175-.042.172-.043.168-.044.163-.045.16-.045.155-.047.152-.047.148-.048.143-.049.139-.049.136-.049.131-.051.126-.05.123-.051.118-.052.114-.051.11-.052.106-.052.101-.052.096-.052.092-.052.088-.052.083-.052.079-.052.074-.052.07-.051.065-.051.06-.051.056-.05.051-.049.023-.025.023-.025.021-.024.02-.024.019-.024.018-.024.017-.024.015-.023.014-.024.013-.023.012-.023.01-.022.01-.023.008-.022.006-.022.006-.022.004-.022.004-.021.001-.021.001-.021v-4.153l-.077.054-.08.054-.083.053-.085.053-.087.053-.09.051-.093.051-.095.051-.097.05-.1.049-.102.048-.105.048-.106.048-.109.046-.111.046-.114.046-.115.044-.118.044-.12.043-.122.043-.124.042-.126.041-.128.04-.13.039-.132.039-.134.038-.135.037-.138.036-.139.036-.142.034-.143.034-.144.033-.147.032-.148.032-.15.03-.151.03-.153.028-.154.028-.156.027-.158.026-.159.024-.161.024-.162.023-.163.023-.165.021-.166.02-.167.019-.169.018-.169.017-.171.016-.173.015-.173.014-.175.013-.175.012-.177.01-.178.01-.179.009-.179.007-.181.006-.182.006-.182.004-.184.003-.184.001-.185.001-.185-.001-.184-.001-.184-.003-.182-.004-.182-.006-.181-.006-.179-.007-.179-.009-.178-.01-.176-.01-.176-.012-.175-.013-.173-.014-.172-.015-.171-.016-.17-.017-.169-.018-.167-.019-.166-.02-.165-.021-.163-.023-.162-.023-.161-.024-.159-.024-.157-.026-.156-.027-.155-.028-.153-.028-.151-.03-.15-.03-.148-.032-.146-.032-.145-.033-.143-.034-.141-.034-.14-.036-.137-.036-.136-.037-.134-.038-.132-.039-.13-.039-.128-.041-.126-.041-.124-.041-.122-.043-.12-.043-.117-.044-.116-.044-.113-.046-.112-.046-.109-.046-.106-.048-.105-.048-.102-.048-.1-.05-.097-.049-.095-.051-.093-.051-.09-.052-.087-.052-.085-.053-.083-.053-.08-.054-.077-.054v4.153zm8.74-8.179l-.257.004-.254.005-.25.008-.247.011-.244.012-.241.014-.237.016-.233.018-.231.021-.226.022-.224.023-.22.026-.216.027-.212.028-.21.031-.205.032-.202.033-.198.034-.194.036-.191.038-.187.038-.183.04-.179.041-.175.042-.172.043-.168.043-.163.045-.16.046-.155.046-.152.048-.148.048-.143.048-.139.049-.136.05-.131.05-.126.051-.123.051-.118.051-.114.052-.11.052-.106.052-.101.052-.096.052-.092.052-.088.052-.083.052-.079.052-.074.051-.07.052-.065.051-.06.05-.056.05-.051.05-.023.025-.023.024-.021.024-.02.025-.019.024-.018.024-.017.023-.015.024-.014.023-.013.023-.012.023-.01.023-.01.022-.008.022-.006.023-.006.021-.004.022-.004.021-.001.021-.001.021.001.021.001.021.004.021.004.022.006.021.006.023.008.022.01.022.01.023.012.023.013.023.014.023.015.024.017.023.018.024.019.024.02.025.021.024.023.024.023.025.051.05.056.05.06.05.065.051.07.052.074.051.079.052.083.052.088.052.092.052.096.052.101.052.106.052.11.052.114.052.118.051.123.051.126.051.131.05.136.05.139.049.143.048.148.048.152.048.155.046.16.046.163.045.168.043.172.043.175.042.179.041.183.04.187.038.191.038.194.036.198.034.202.033.205.032.21.031.212.028.216.027.22.026.224.023.226.022.231.021.233.018.237.016.241.014.244.012.247.011.25.008.254.005.257.004.26.001.26-.001.257-.004.254-.005.25-.008.247-.011.244-.012.241-.014.237-.016.233-.018.231-.021.226-.022.224-.023.22-.026.216-.027.212-.028.21-.031.205-.032.202-.033.198-.034.194-.036.191-.038.187-.038.183-.04.179-.041.175-.042.172-.043.168-.043.163-.045.16-.046.155-.046.152-.048.148-.048.143-.048.139-.049.136-.05.131-.05.126-.051.123-.051.118-.051.114-.052.11-.052.106-.052.101-.052.096-.052.092-.052.088-.052.083-.052.079-.052.074-.051.07-.052.065-.051.06-.05.056-.05.051-.05.023-.025.023-.024.021-.024.02-.025.019-.024.018-.024.017-.023.015-.024.014-.023.013-.023.012-.023.01-.023.01-.022.008-.022.006-.023.006-.021.004-.022.004-.021.001-.021.001-.021-.001-.021-.001-.021-.004-.021-.004-.022-.006-.021-.006-.023-.008-.022-.01-.022-.01-.023-.012-.023-.013-.023-.014-.023-.015-.024-.017-.023-.018-.024-.019-.024-.02-.025-.021-.024-.023-.024-.023-.025-.051-.05-.056-.05-.06-.05-.065-.051-.07-.052-.074-.051-.079-.052-.083-.052-.088-.052-.092-.052-.096-.052-.101-.052-.106-.052-.11-.052-.114-.052-.118-.051-.123-.051-.126-.051-.131-.05-.136-.05-.139-.049-.143-.048-.148-.048-.152-.048-.155-.046-.16-.046-.163-.045-.168-.043-.172-.043-.175-.042-.179-.041-.183-.04-.187-.038-.191-.038-.194-.036-.198-.034-.202-.033-.205-.032-.21-.031-.212-.028-.216-.027-.22-.026-.224-.023-.226-.022-.231-.021-.233-.018-.237-.016-.241-.014-.244-.012-.247-.011-.25-.008-.254-.005-.257-.004-.26-.001-.26.001z"/></symbol></defs><defs><symbol id="clock" width="24" height="24"><path transform="scale(.5)" d="M12 2c5.514 0 10 4.486 10 10s-4.486 10-10 10-10-4.486-10-10 4.486-10 10-10zm0-2c-6.627 0-12 5.373-12 12s5.373 12 12 12 12-5.373 12-12-5.373-12-12-12zm5.848 12.459c.202.038.202.333.001.372-1.907.361-6.045 1.111-6.547 1.111-.719 0-1.301-.582-1.301-1.301 0-.512.77-5.447 1.125-7.445.034-.192.312-.181.343.014l.985 6.238 5.394 1.011z"/></symbol></defs><defs><marker id="arrowhead" refX="7.9" refY="5" markerUnits="userSpaceOnUse" markerWidth="12" markerHeight="12" orient="auto-start-reverse"><path d="M -1 0 L 10 5 L 0 10 z"/></marker></defs><defs><marker id="crosshead" markerWidth="15" markerHeight="8" orient="auto" refX="4" refY="4.5"><path fill="none" stroke="#000000" stroke-width="1pt" d="M 1,2 L 6,7 M 6,2 L 1,7" style="stroke-dasharray: 0, 0;"/></marker></defs><defs><marker id="filled-head" refX="15.5" refY="7" markerWidth="20" markerHeight="28" orient="auto"><path d="M 18,7 L9,13 L14,7 L9,1 Z"/></marker></defs><defs><marker id="sequencenumber" refX="15" refY="15" markerWidth="60" markerHeight="40" orient="auto"><circle cx="15" cy="15" r="6"/></marker></defs><g><rect x="250" y="95" fill="#EDF2AE" stroke="#666" width="633.5" height="39" class="note"/><text x="567" y="100" text-anchor="middle" dominant-baseline="middle" alignment-baseline="middle" class="noteText" dy="1em" style="font-size: 16px; font-weight: 400;"><tspan x="567">Request handling</tspan></text></g><g><rect x="696.5" y="232" fill="#EDF2AE" stroke="#666" width="324" height="39" class="note"/><text x="859" y="237" text-anchor="middle" dominant-baseline="middle" alignment-baseline="middle" class="noteText" dy="1em" style="font-size: 16px; font-weight: 400;"><tspan x="859">Parse incoming model and apply model rewrite</tspan></text></g><g><rect x="693" y="355" fill="#EDF2AE" stroke="#666" width="331" height="39" class="note"/><text x="859" y="360" text-anchor="middle" dominant-baseline="middle" alignment-baseline="middle" class="noteText" dy="1em" style="font-size: 16px; font-weight: 400;"><tspan x="859">Extract request body internally (request parsing)</tspan></text></g><g><rect x="883.5" y="1029" fill="#EDF2AE" stroke="#666" width="294" height="39" class="note"/><text x="1031" y="1034" text-anchor="middle" dominant-baseline="middle" alignment-baseline="middle" class="noteText" dy="1em" style="font-size: 16px; font-weight: 400;"><tspan x="1031">Before scheduling run PrepareDataPlugins</tspan></text></g><g><line x1="837.5" y1="1122" x2="1866" y2="1122" class="loopLine"/><line x1="1866" y1="1122" x2="1866" y2="1360" class="loopLine"/><line x1="837.5" y1="1360" x2="1866" y2="1360" class="loopLine"/><line x1="837.5" y1="1122" x2="837.5" y2="1360" class="loopLine"/><line x1="837.5" y1="1246" x2="1866" y2="1246" class="loopLine" style="stroke-dasharray: 3, 3;"/><polygon points="837.5,1122 887.5,1122 887.5,1135 879.1,1142 837.5,1142" class="labelBox"/><text x="863" y="1135" text-anchor="middle" dominant-baseline="middle" alignment-baseline="middle" class="labelText" style="font-size: 16px; font-weight: 400;">alt</text><text x="1376.75" y="1140" text-anchor="middle" class="loopText" style="font-size: 16px; font-weight: 400;"><tspan x="1376.75">[prepare-data success]</tspan></text><text x="1351.75" y="1264" text-anchor="middle" class="loopText" style="font-size: 16px; font-weight: 400;">[timeout/error]</text></g><g><line x1="458" y1="1414" x2="2466" y2="1414" class="loopLine"/><line x1="2466" y1="1414" x2="2466" y2="1946" class="loopLine"/><line x1="458" y1="1946" x2="2466" y2="1946" class="loopLine"/><line x1="458" y1="1414" x2="458" y2="1946" class="loopLine"/><line x1="458" y1="1538" x2="2466" y2="1538" class="loopLine" style="stroke-dasharray: 3, 3;"/><polygon points="458,1414 508,1414 508,1427 499.6,1434 458,1434" class="labelBox"/><text x="483" y="1427" text-anchor="middle" dominant-baseline="middle" alignment-baseline="middle" class="labelText" style="font-size: 16px; font-weight: 400;">alt</text><text x="1487" y="1432" text-anchor="middle" class="loopText" style="font-size: 16px; font-weight: 400;"><tspan x="1487">[any deny]</tspan></text><text x="1462" y="1556" text-anchor="middle" class="loopText" style="font-size: 16px; font-weight: 400;">[all allow]</text></g><g><line x1="438" y1="802" x2="2486" y2="802" class="loopLine"/><line x1="2486" y1="802" x2="2486" y2="2085" class="loopLine"/><line x1="438" y1="2085" x2="2486" y2="2085" class="loopLine"/><line x1="438" y1="802" x2="438" y2="2085" class="loopLine"/><line x1="438" y1="1971" x2="2486" y2="1971" class="loopLine" style="stroke-dasharray: 3, 3;"/><polygon points="438,802 488,802 488,815 479.6,822 438,822" class="labelBox"/><text x="463" y="815" text-anchor="middle" dominant-baseline="middle" alignment-baseline="middle" class="labelText" style="font-size: 16px; font-weight: 400;">alt</text><text x="1487" y="820" text-anchor="middle" class="loopText" style="font-size: 16px; font-weight: 400;"><tspan x="1487">[allowed]</tspan></text><text x="1462" y="1989" text-anchor="middle" class="loopText" style="font-size: 16px; font-weight: 400;">[denied]</text></g><g><rect x="454" y="2125" fill="#EDF2AE" stroke="#666" width="429.5" height="39" class="note"/><text x="669" y="2130" text-anchor="middle" dominant-baseline="middle" alignment-baseline="middle" class="noteText" dy="1em" style="font-size: 16px; font-weight: 400;"><tspan x="669">Response handling</tspan></text></g><g><rect x="783.5" y="2580" fill="#EDF2AE" stroke="#666" width="150" height="39" class="note"/><text x="859" y="2585" text-anchor="middle" dominant-baseline="middle" alignment-baseline="middle" class="noteText" dy="1em" style="font-size: 16px; font-weight: 400;"><tspan x="859">Helpers</tspan></text></g><g><rect x="529" y="2629" fill="#EDF2AE" stroke="#666" width="659" height="39" class="note"/><text x="859" y="2634" text-anchor="middle" dominant-baseline="middle" alignment-baseline="middle" class="noteText" dy="1em" style="font-size: 16px; font-weight: 400;"><tspan x="859">applyWeightedModelRewrite, selectWeightedModel, toSchedulerPodMetrics, GetRandomEndpoint</tspan></text></g><text x="376" y="149" text-anchor="middle" dominant-baseline="middle" alignment-baseline="middle" class="messageText" dy="1em" style="font-size: 16px; font-weight: 400;">HTTP/gRPC request</text><line x1="276" y1="178" x2="475" y2="178" class="messageLine0" stroke-width="2" stroke="none" marker-end="url(#arrowhead)" style="fill: none;"/><text x="667" y="193" text-anchor="middle" dominant-baseline="middle" alignment-baseline="middle" class="messageText" dy="1em" style="font-size: 16px; font-weight: 400;">HandleRequest(reqCtx)</text><line x1="480" y1="222" x2="854.5" y2="222" class="messageLine0" stroke-width="2" stroke="none" marker-end="url(#arrowhead)" style="fill: none;"/><text x="860" y="286" text-anchor="middle" dominant-baseline="middle" alignment-baseline="middle" class="messageText" dy="1em" style="font-size: 16px; font-weight: 400;">applyWeightedModelRewrite(reqCtx)</text><path d="M 859.5,315 C 919.5,305 919.5,345 859.5,335" class="messageLine0" stroke-width="2" stroke="none" marker-end="url(#arrowhead)" style="fill: none;"/><text x="860" y="409" text-anchor="middle" dominant-baseline="middle" alignment-baseline="middle" class="messageText" dy="1em" style="font-size: 16px; font-weight: 400;">ExtractRequestBody</text><path d="M 859.5,438 C 919.5,428 919.5,468 859.5,458" class="messageLine0" stroke-width="2" stroke="none" marker-end="url(#arrowhead)" style="fill: none;"/><text x="860" y="483" text-anchor="middle" dominant-baseline="middle" alignment-baseline="middle" class="messageText" dy="1em" style="font-size: 16px; font-weight: 400;">LLMRequestBody</text><path d="M 859.5,512 C 919.5,502 919.5,542 859.5,532" class="messageLine1" stroke-width="2" stroke="none" marker-end="url(#arrowhead)" style="stroke-dasharray: 3, 3; fill: none;"/><text x="1047" y="557" text-anchor="middle" dominant-baseline="middle" alignment-baseline="middle" class="messageText" dy="1em" style="font-size: 16px; font-weight: 400;">ObjectiveGet(reqCtx.ObjectiveKey)</text><line x1="859.5" y1="586" x2="1234" y2="586" class="messageLine0" stroke-width="2" stroke="none" marker-end="url(#arrowhead)" style="fill: none;"/><text x="1050" y="601" text-anchor="middle" dominant-baseline="middle" alignment-baseline="middle" class="messageText" dy="1em" style="font-size: 16px; font-weight: 400;">InferenceObjective (or nil)</text><line x1="1237" y1="630" x2="862.5" y2="630" class="messageLine1" stroke-width="2" stroke="none" marker-end="url(#arrowhead)" style="stroke-dasharray: 3, 3; fill: none;"/><text x="860" y="645" text-anchor="middle" dominant-baseline="middle" alignment-baseline="middle" class="messageText" dy="1em" style="font-size: 16px; font-weight: 400;">getInferenceObjective (set default priority)</text><path d="M 859.5,674 C 919.5,664 919.5,704 859.5,694" class="messageLine0" stroke-width="2" stroke="none" marker-end="url(#arrowhead)" style="fill: none;"/><text x="1249" y="719" text-anchor="middle" dominant-baseline="middle" alignment-baseline="middle" class="messageText" dy="1em" style="font-size: 16px; font-weight: 400;">Admit(ctx, reqCtx, priority)</text><line x1="859.5" y1="748" x2="1637.5" y2="748" class="messageLine0" stroke-width="2" stroke="none" marker-end="url(#arrowhead)" style="fill: none;"/><text x="1252" y="763" text-anchor="middle" dominant-baseline="middle" alignment-baseline="middle" class="messageText" dy="1em" style="font-size: 16px; font-weight: 400;">allowed/denied</text><line x1="1640.5" y1="792" x2="862.5" y2="792" class="messageLine1" stroke-width="2" stroke="none" marker-end="url(#arrowhead)" style="stroke-dasharray: 3, 3; fill: none;"/><text x="1147" y="872" text-anchor="middle" dominant-baseline="middle" alignment-baseline="middle" class="messageText" dy="1em" style="font-size: 16px; font-weight: 400;">Locate(ctx, metadata)</text><line x1="859.5" y1="901" x2="1434" y2="901" class="messageLine0" stroke-width="2" stroke="none" marker-end="url(#arrowhead)" style="fill: none;"/><text x="1150" y="916" text-anchor="middle" dominant-baseline="middle" alignment-baseline="middle" class="messageText" dy="1em" style="font-size: 16px; font-weight: 400;">candidatePods</text><line x1="1437" y1="945" x2="862.5" y2="945" class="messageLine1" stroke-width="2" stroke="none" marker-end="url(#arrowhead)" style="stroke-dasharray: 3, 3; fill: none;"/><text x="860" y="960" text-anchor="middle" dominant-baseline="middle" alignment-baseline="middle" class="messageText" dy="1em" style="font-size: 16px; font-weight: 400;">convert pods -&gt; scheduler endpoints (toSchedulerPodMetrics)</text><path d="M 859.5,989 C 919.5,979 919.5,1019 859.5,1009" class="messageLine0" stroke-width="2" stroke="none" marker-end="url(#arrowhead)" style="fill: none;"/><text x="1350" y="1083" text-anchor="middle" dominant-baseline="middle" alignment-baseline="middle" class="messageText" dy="1em" style="font-size: 16px; font-weight: 400;">runPrepareDataPlugins(ctx, LLMRequest, endpoints)</text><line x1="859.5" y1="1112" x2="1841" y2="1112" class="messageLine0" stroke-width="2" stroke="none" marker-end="url(#arrowhead)" style="fill: none;"/><text x="1353" y="1192" text-anchor="middle" dominant-baseline="middle" alignment-baseline="middle" class="messageText" dy="1em" style="font-size: 16px; font-weight: 400;">enriched request (optional)</text><line x1="1844" y1="1221" x2="862.5" y2="1221" class="messageLine1" stroke-width="2" stroke="none" marker-end="url(#arrowhead)" style="stroke-dasharray: 3, 3; fill: none;"/><text x="1353" y="1311" text-anchor="middle" dominant-baseline="middle" alignment-baseline="middle" class="messageText" dy="1em" style="font-size: 16px; font-weight: 400;">log and continue (fail-open)</text><line x1="1844" y1="1340" x2="862.5" y2="1340" class="messageLine1" stroke-width="2" stroke="none" marker-end="url(#arrowhead)" style="stroke-dasharray: 3, 3; fill: none;"/><text x="1450" y="1375" text-anchor="middle" dominant-baseline="middle" alignment-baseline="middle" class="messageText" dy="1em" style="font-size: 16px; font-weight: 400;">runAdmissionPlugins(ctx, LLMRequest, endpoints)</text><line x1="859.5" y1="1404" x2="2041" y2="1404" class="messageLine0" stroke-width="2" stroke="none" marker-end="url(#arrowhead)" style="fill: none;"/><text x="1453" y="1484" text-anchor="middle" dominant-baseline="middle" alignment-baseline="middle" class="messageText" dy="1em" style="font-size: 16px; font-weight: 400;">deny -&gt; return error</text><line x1="2044" y1="1513" x2="862.5" y2="1513" class="messageLine1" stroke-width="2" stroke="none" marker-end="url(#arrowhead)" style="stroke-dasharray: 3, 3; fill: none;"/><text x="1453" y="1603" text-anchor="middle" dominant-baseline="middle" alignment-baseline="middle" class="messageText" dy="1em" style="font-size: 16px; font-weight: 400;">allow</text><line x1="2044" y1="1632" x2="862.5" y2="1632" class="messageLine1" stroke-width="2" stroke="none" marker-end="url(#arrowhead)" style="stroke-dasharray: 3, 3; fill: none;"/><text x="1550" y="1647" text-anchor="middle" dominant-baseline="middle" alignment-baseline="middle" class="messageText" dy="1em" style="font-size: 16px; font-weight: 400;">Schedule(ctx, LLMRequest, endpoints)</text><line x1="859.5" y1="1676" x2="2241" y2="1676" class="messageLine0" stroke-width="2" stroke="none" marker-end="url(#arrowhead)" style="fill: none;"/><text x="1553" y="1691" text-anchor="middle" dominant-baseline="middle" alignment-baseline="middle" class="messageText" dy="1em" style="font-size: 16px; font-weight: 400;">SchedulingResult</text><line x1="2244" y1="1720" x2="862.5" y2="1720" class="messageLine1" stroke-width="2" stroke="none" marker-end="url(#arrowhead)" style="stroke-dasharray: 3, 3; fill: none;"/><text x="860" y="1735" text-anchor="middle" dominant-baseline="middle" alignment-baseline="middle" class="messageText" dy="1em" style="font-size: 16px; font-weight: 400;">prepareRequest(ctx, reqCtx, result)</text><path d="M 859.5,1764 C 919.5,1754 919.5,1794 859.5,1784" class="messageLine0" stroke-width="2" stroke="none" marker-end="url(#arrowhead)" style="fill: none;"/><text x="1650" y="1809" text-anchor="middle" dominant-baseline="middle" alignment-baseline="middle" class="messageText" dy="1em" style="font-size: 16px; font-weight: 400;">runPreRequestPlugins(ctx, LLMRequest, result)</text><line x1="859.5" y1="1838" x2="2441" y2="1838" class="messageLine0" stroke-width="2" stroke="none" marker-end="url(#arrowhead)" style="fill: none;"/><text x="1653" y="1853" text-anchor="middle" dominant-baseline="middle" alignment-baseline="middle" class="messageText" dy="1em" style="font-size: 16px; font-weight: 400;">done</text><line x1="2444" y1="1882" x2="862.5" y2="1882" class="messageLine1" stroke-width="2" stroke="none" marker-end="url(#arrowhead)" style="stroke-dasharray: 3, 3; fill: none;"/><text x="670" y="1897" text-anchor="middle" dominant-baseline="middle" alignment-baseline="middle" class="messageText" dy="1em" style="font-size: 16px; font-weight: 400;">reqCtx with TargetPod/TargetEndpoint</text><line x1="857.5" y1="1926" x2="483" y2="1926" class="messageLine1" stroke-width="2" stroke="none" marker-end="url(#arrowhead)" style="stroke-dasharray: 3, 3; fill: none;"/><text x="1252" y="2036" text-anchor="middle" dominant-baseline="middle" alignment-baseline="middle" class="messageText" dy="1em" style="font-size: 16px; font-weight: 400;">deny -&gt; return error</text><line x1="1640.5" y1="2065" x2="862.5" y2="2065" class="messageLine1" stroke-width="2" stroke="none" marker-end="url(#arrowhead)" style="stroke-dasharray: 3, 3; fill: none;"/><text x="667" y="2179" text-anchor="middle" dominant-baseline="middle" alignment-baseline="middle" class="messageText" dy="1em" style="font-size: 16px; font-weight: 400;">HandleResponseReceived(ctx, reqCtx)</text><line x1="480" y1="2208" x2="854.5" y2="2208" class="messageLine0" stroke-width="2" stroke="none" marker-end="url(#arrowhead)" style="fill: none;"/><text x="1850" y="2223" text-anchor="middle" dominant-baseline="middle" alignment-baseline="middle" class="messageText" dy="1em" style="font-size: 16px; font-weight: 400;">runResponseReceivedPlugins(ctx, LLMRequest, response, targetPod)</text><line x1="859.5" y1="2252" x2="2841" y2="2252" class="messageLine0" stroke-width="2" stroke="none" marker-end="url(#arrowhead)" style="fill: none;"/><text x="1853" y="2267" text-anchor="middle" dominant-baseline="middle" alignment-baseline="middle" class="messageText" dy="1em" style="font-size: 16px; font-weight: 400;">done</text><line x1="2844" y1="2296" x2="862.5" y2="2296" class="messageLine1" stroke-width="2" stroke="none" marker-end="url(#arrowhead)" style="stroke-dasharray: 3, 3; fill: none;"/><text x="667" y="2311" text-anchor="middle" dominant-baseline="middle" alignment-baseline="middle" class="messageText" dy="1em" style="font-size: 16px; font-weight: 400;">HandleResponseBodyStreaming(ctx, reqCtx)</text><line x1="480" y1="2340" x2="854.5" y2="2340" class="messageLine0" stroke-width="2" stroke="none" marker-end="url(#arrowhead)" style="fill: none;"/><text x="1850" y="2355" text-anchor="middle" dominant-baseline="middle" alignment-baseline="middle" class="messageText" dy="1em" style="font-size: 16px; font-weight: 400;">runResponseStreamingPlugins(ctx, LLMRequest, chunkResponse, targetPod)</text><line x1="859.5" y1="2384" x2="2841" y2="2384" class="messageLine0" stroke-width="2" stroke="none" marker-end="url(#arrowhead)" style="fill: none;"/><text x="1853" y="2399" text-anchor="middle" dominant-baseline="middle" alignment-baseline="middle" class="messageText" dy="1em" style="font-size: 16px; font-weight: 400;">done</text><line x1="2844" y1="2428" x2="862.5" y2="2428" class="messageLine1" stroke-width="2" stroke="none" marker-end="url(#arrowhead)" style="stroke-dasharray: 3, 3; fill: none;"/><text x="667" y="2443" text-anchor="middle" dominant-baseline="middle" alignment-baseline="middle" class="messageText" dy="1em" style="font-size: 16px; font-weight: 400;">HandleResponseBodyComplete(ctx, reqCtx)</text><line x1="480" y1="2472" x2="854.5" y2="2472" class="messageLine0" stroke-width="2" stroke="none" marker-end="url(#arrowhead)" style="fill: none;"/><text x="1850" y="2487" text-anchor="middle" dominant-baseline="middle" alignment-baseline="middle" class="messageText" dy="1em" style="font-size: 16px; font-weight: 400;">runResponseCompletePlugins(ctx, LLMRequest, finalResponse, targetPod)</text><line x1="859.5" y1="2516" x2="2841" y2="2516" class="messageLine0" stroke-width="2" stroke="none" marker-end="url(#arrowhead)" style="fill: none;"/><text x="1853" y="2531" text-anchor="middle" dominant-baseline="middle" alignment-baseline="middle" class="messageText" dy="1em" style="font-size: 16px; font-weight: 400;">done</text><line x1="2844" y1="2560" x2="862.5" y2="2560" class="messageLine1" stroke-width="2" stroke="none" marker-end="url(#arrowhead)" style="stroke-dasharray: 3, 3; fill: none;"/></svg>